<!--?xml version="1.0" standalone="no"?-->
              <svg id="sw-js-blob-svg" viewBox="0 0 100 100" xmlns="http://www.w3.org/2000/svg" version="1.1">
                    <defs> 
                        <linearGradient id="sw-gradient" x1="0" x2="1" y1="1" y2="0">
                            <stop id="stop1" stop-color="rgba(186, 123, 220, 1)" offset="0%"></stop>
                            <stop id="stop2" stop-color="rgba(59, 25, 146, 1)" offset="100%"></stop>
                        </linearGradient>
                    </defs>
                <path fill="url(#sw-gradient)" d="M9.6,-20.7C13.1,-14.7,16.9,-13.3,16.8,-10.6C16.7,-8,12.8,-4,14.1,0.8C15.5,5.5,22.1,11,24.5,17.9C27,24.7,25.3,32.8,20.6,37.8C15.8,42.8,7.9,44.7,2.7,40C-2.5,35.4,-5,24.2,-9.8,19.2C-14.7,14.2,-21.8,15.5,-22.5,13.3C-23.2,11.2,-17.4,5.6,-18.2,-0.5C-19,-6.5,-26.4,-13,-27.7,-18.6C-29,-24.2,-24.1,-28.8,-18.5,-33.6C-12.9,-38.3,-6.4,-43.2,-1.7,-40.4C3.1,-37.5,6.2,-26.8,9.6,-20.7Z" width="100%" height="100%" transform="translate(50 50)" stroke-width="0" style="transition: 0.3s;"></path>
              </svg>