<!--?xml version="1.0" standalone="no"?-->
              <svg id="sw-js-blob-svg" viewBox="0 0 100 100" xmlns="http://www.w3.org/2000/svg" version="1.1">
                    <defs> 
                        <linearGradient id="sw-gradient" x1="0" x2="1" y1="1" y2="0">
                            <stop id="stop1" stop-color="rgba(120, 43, 161, 1)" offset="0%"></stop>
                            <stop id="stop2" stop-color="rgba(120, 43, 161, 1)" offset="100%"></stop>
                        </linearGradient>
                    </defs>
                <path fill="url(#sw-gradient)" d="M27.8,-31.7C35.3,-26.8,40.3,-17.4,41.2,-7.9C42.2,1.6,39.1,11.2,33.5,17.9C27.9,24.5,19.8,28.3,11.6,30.6C3.5,33,-4.6,34.1,-12.9,32.4C-21.2,30.7,-29.7,26.4,-34.3,19.3C-39,12.3,-39.8,2.6,-36.3,-4.5C-32.8,-11.6,-24.9,-16,-18.1,-21C-11.4,-26.1,-5.7,-31.9,2.2,-34.6C10.1,-37.2,20.2,-36.7,27.8,-31.7Z" width="100%" height="100%" transform="translate(50 50)" stroke-width="0" style="transition: 0.3s;"></path>
              </svg>